<?xml version="1.0" encoding="UTF-8" standalone="no"?>
<!-- Created with Inkscape (http://www.inkscape.org/) -->

<svg
   xmlns:dc="http://purl.org/dc/elements/1.1/"
   xmlns:cc="http://creativecommons.org/ns#"
   xmlns:rdf="http://www.w3.org/1999/02/22-rdf-syntax-ns#"
   xmlns:svg="http://www.w3.org/2000/svg"
   xmlns="http://www.w3.org/2000/svg"
   xmlns:xlink="http://www.w3.org/1999/xlink"
   xmlns:sodipodi="http://sodipodi.sourceforge.net/DTD/sodipodi-0.dtd"
   xmlns:inkscape="http://www.inkscape.org/namespaces/inkscape"
   width="36"
   height="36"
   id="svg2"
   version="1.1"
   inkscape:version="0.48.1 r9760"
   sodipodi:docname="plugin.svg"
   inkscape:export-filename="/home/jstpierre/plugin.png"
   inkscape:export-xdpi="90"
   inkscape:export-ydpi="90">
  <defs
     id="defs4">
    <linearGradient
       inkscape:collect="always"
       id="linearGradient3976">
      <stop
         style="stop-color:#4e9a06;stop-opacity:1"
         offset="0"
         id="stop3978" />
      <stop
         style="stop-color:#4e9a06;stop-opacity:0"
         offset="1"
         id="stop3980" />
    </linearGradient>
    <linearGradient
       inkscape:collect="always"
       id="linearGradient3931">
      <stop
         style="stop-color:#eeeeec;stop-opacity:1;"
         offset="0"
         id="stop3933" />
      <stop
         style="stop-color:#eeeeec;stop-opacity:0;"
         offset="1"
         id="stop3935" />
    </linearGradient>
    <linearGradient
       inkscape:collect="always"
       xlink:href="#linearGradient3931"
       id="linearGradient3993"
       gradientUnits="userSpaceOnUse"
       x1="217.61458"
       y1="343.49124"
       x2="217.01712"
       y2="367.02194" />
    <linearGradient
       inkscape:collect="always"
       xlink:href="#linearGradient3976"
       id="linearGradient3995"
       gradientUnits="userSpaceOnUse"
       gradientTransform="translate(0,-69.385322)"
       x1="209.89964"
       y1="456.35876"
       x2="208.1378"
       y2="444.91559" />
    <linearGradient
       inkscape:collect="always"
       xlink:href="#linearGradient3931"
       id="linearGradient4051"
       gradientUnits="userSpaceOnUse"
       x1="217.61458"
       y1="343.49124"
       x2="217.01712"
       y2="367.02194" />
    <linearGradient
       inkscape:collect="always"
       xlink:href="#linearGradient3976"
       id="linearGradient4053"
       gradientUnits="userSpaceOnUse"
       gradientTransform="translate(0,-69.385322)"
       x1="209.89964"
       y1="456.35876"
       x2="208.1378"
       y2="444.91559" />
    <filter
       inkscape:collect="always"
       id="filter4077"
       x="-0.43139305"
       width="1.8627861"
       y="-0.80651745"
       height="2.6130349">
      <feGaussianBlur
         inkscape:collect="always"
         stdDeviation="1.5544576"
         id="feGaussianBlur4079" />
    </filter>
    <filter
       inkscape:collect="always"
       id="filter4083"
       x="-0.06362069"
       width="1.1272414"
       y="-1.0542857"
       height="3.1085715">
      <feGaussianBlur
         inkscape:collect="always"
         stdDeviation="0.61843439"
         id="feGaussianBlur4085" />
    </filter>
  </defs>
  <sodipodi:namedview
     id="base"
     pagecolor="#ffffff"
     bordercolor="#666666"
     borderopacity="1.0"
     inkscape:pageopacity="0.0"
     inkscape:pageshadow="2"
     inkscape:zoom="19.888933"
     inkscape:cx="26.890387"
     inkscape:cy="12.734826"
     inkscape:document-units="px"
     inkscape:current-layer="g4044"
     showgrid="true"
     showguides="true"
     inkscape:guide-bbox="true"
     inkscape:window-width="1920"
     inkscape:window-height="1142"
     inkscape:window-x="0"
     inkscape:window-y="26"
     inkscape:window-maximized="1"
     inkscape:snap-grids="false"
     inkscape:snap-to-guides="false"
     inkscape:snap-bbox="true"
     inkscape:bbox-paths="true">
    <inkscape:grid
       type="xygrid"
       id="grid4089"
       empspacing="1"
       visible="true"
       enabled="true"
       snapvisiblegridlinesonly="true"
       dotted="false" />
    <sodipodi:guide
       orientation="1,0"
       position="2,15"
       id="guide4091" />
    <sodipodi:guide
       orientation="0,1"
       position="6,34"
       id="guide4093" />
    <sodipodi:guide
       orientation="0,1"
       position="32.279258,2.061448"
       id="guide4095" />
    <sodipodi:guide
       orientation="1,0"
       position="34,19"
       id="guide4097" />
  </sodipodi:namedview>
  <metadata
     id="metadata7">
    <rdf:RDF>
      <cc:Work
         rdf:about="">
        <dc:format>image/svg+xml</dc:format>
        <dc:type
           rdf:resource="http://purl.org/dc/dcmitype/StillImage" />
        <dc:title></dc:title>
      </cc:Work>
    </rdf:RDF>
  </metadata>
  <g
     inkscape:label="Layer 1"
     inkscape:groupmode="layer"
     id="layer1"
     transform="translate(0,-1016.3622)">
    <g
       id="g3984"
       transform="matrix(0.48483793,0,0,0.49246455,92.696046,200.50034)">
      <path
         sodipodi:type="arc"
         style="opacity:0.8;color:#000000;fill:#2e3436;fill-opacity:1;fill-rule:nonzero;stroke:none;stroke-width:1;marker:none;visibility:visible;display:inline;overflow:visible;filter:url(#filter4083);enable-background:new"
         id="path4081"
         sodipodi:cx="20.715038"
         sodipodi:cy="31.474871"
         sodipodi:rx="11.664779"
         sodipodi:ry="0.70390904"
         d="m 32.379817,31.474871 a 11.664779,0.70390904 0 1 1 -23.3295574,0 11.664779,0.70390904 0 1 1 23.3295574,0 z"
         transform="matrix(2.0625449,0,0,1.7727043,-191.18976,1666.658)" />
      <g
         id="g4044"
         transform="matrix(0.93590922,0,0,0.92325969,-352.83723,1356.8308)">
        <path
           style="color:#000000;fill:#73d216;fill-opacity:1;fill-rule:nonzero;stroke:none;stroke-width:2.20158482;marker:none;visibility:visible;display:inline;overflow:visible;enable-background:new"
           d="m 218.45521,330.14286 c -6.35066,0 -11.50513,3.61124 -11.50513,8.07177 0,1.22827 2.34001,3.4341 1.09365,3.4341 -4.29802,0 -15.88579,0 -15.88579,0 -1.55105,0 -2.79972,1.26074 -2.79972,2.82677 l 0,13.11802 c 0,1.54489 -2.53488,-1.55694 -3.9918,-1.55694 -4.41785,0 -6.89742,5.4144 -6.89742,11.82641 0,6.41202 2.47957,11.39512 6.89742,11.39512 1.45572,0 3.9918,-3.10036 3.9918,-1.55693 l 0,13.6149 c 0,1.56604 1.24867,2.82678 2.79972,2.82678 l 17.31846,0 c 2.09035,0 -2.52632,-3.13558 -2.52632,-5.04624 0,-4.46053 5.15447,-8.07177 11.50513,-8.07177 6.35065,0 11.49419,3.61124 11.49419,8.07177 0,1.91066 -4.61667,5.04624 -2.52632,5.04624 l 16.23516,0 c 1.55105,0 2.79973,-1.26074 2.79973,-2.82678 l 0,-15.24913 c 0,-2.44707 -3.36931,3.19116 -5.50103,3.19116 -4.41784,0 -8.00546,-5.20427 -8.00546,-11.61629 0,-6.41201 3.58762,-11.60524 8.00546,-11.60524 2.13057,0 5.50103,5.62553 5.50103,3.18012 l 0,-14.7412 c 0,-1.56603 -1.24868,-2.82677 -2.79973,-2.82677 0,0 -10.57008,0 -14.80248,0 -1.24637,0 1.09364,-2.20583 1.09364,-3.4341 0,-4.46053 -5.14354,-8.07177 -11.49419,-8.07177 z"
           id="rect2987"
           inkscape:connector-curvature="0"
           sodipodi:nodetypes="sssssssssssssssssssssssssssss" />
        <path
           sodipodi:type="inkscape:offset"
           inkscape:radius="-2.0318649"
           inkscape:original="M 218.34375 330.375 C 211.99309 330.375 206.84375 333.75822 206.84375 338.21875 C 206.84375 339.44702 209.18386 341.3125 207.9375 341.3125 L 192.0625 341.3125 C 190.51145 341.3125 189.25 342.59022 189.25 344.15625 L 189.25 357.59375 C 189.25 359.13865 186.70692 356.03125 185.25 356.03125 C 180.83215 356.03125 178.21875 361.24424 178.21875 367.65625 C 178.21875 374.06827 180.83215 379.25 185.25 379.25 C 186.70572 379.25 189.25 376.14407 189.25 377.6875 L 189.25 391.3125 C 189.25 392.87853 190.51145 394.03125 192.0625 394.03125 L 209.375 394.03125 C 211.46535 394.03125 206.84375 391.00441 206.84375 389.09375 C 206.84375 384.63322 211.99309 381.03125 218.34375 381.03125 C 224.6944 381.03125 229.84375 384.63322 229.84375 389.09375 C 229.84375 391.00441 225.22215 394.03125 227.3125 394.03125 L 236.21875 394.03125 L 243.65625 394.03125 C 245.2073 394.03125 246.5625 392.87853 246.5625 391.3125 L 246.5625 376.0625 C 246.5625 373.61543 243.10047 379.25 240.96875 379.25 C 236.55091 379.25 232.9375 374.06827 232.9375 367.65625 C 232.9375 361.24424 236.55091 356.03125 240.96875 356.03125 C 243.09932 356.03125 246.5625 361.66416 246.5625 359.21875 L 246.5625 344.15625 C 246.5625 342.59022 245.2073 341.3125 243.65625 341.3125 L 228.75 341.3125 C 227.50363 341.3125 229.84375 339.44702 229.84375 338.21875 C 229.84375 333.75822 224.6944 330.375 218.34375 330.375 z "
           style="color:#000000;fill:none;stroke:#8ae234;stroke-width:2.20158482;stroke-miterlimit:4;stroke-dasharray:none;marker:none;visibility:visible;display:inline;overflow:visible;enable-background:new"
           id="path4135"
           d="m 218.34375,332.40625 c -2.81451,0 -5.32425,0.77626 -7,1.90625 -1.63721,1.104 -2.40164,2.40272 -2.4375,3.8125 0.0128,0.0332 0.005,0.0476 0.0312,0.0937 0.12219,0.21247 0.35833,0.50375 0.59375,0.84375 0.23542,0.34 0.53828,0.56857 0.75,1.5 0.10586,0.46571 0.0429,1.47983 -0.625,2.125 -0.66794,0.64517 -1.30952,0.65625 -1.71875,0.65625 l -15.875,0 c -0.43518,0 -0.78125,0.33759 -0.78125,0.8125 l 0,13.4375 c 0,0.47184 -0.0486,1.24256 -0.8125,1.90625 -0.76395,0.66369 -1.73241,0.59781 -2.1875,0.46875 -0.91018,-0.25812 -1.21911,-0.62551 -1.65625,-0.9375 -0.43714,-0.31199 -0.87135,-0.62195 -1.1875,-0.8125 -0.31615,-0.19055 -0.54555,-0.15625 -0.1875,-0.15625 -1.40974,0 -2.44425,0.69551 -3.40625,2.375 -0.962,1.67949 -1.59375,4.28879 -1.59375,7.21875 0,2.92996 0.63331,5.51695 1.59375,7.1875 0.96044,1.67055 1.99172,2.375 3.40625,2.375 -0.3586,0 -0.12869,0.0343 0.1875,-0.15625 0.31619,-0.19052 0.75029,-0.50061 1.1875,-0.8125 0.43721,-0.31189 0.74692,-0.67948 1.65625,-0.9375 0.45466,-0.12901 1.42269,-0.19435 2.1875,0.46875 0.76481,0.6631 0.8125,1.4342 0.8125,1.90625 l 0,13.625 c 0,0.47491 0.2369,0.6875 0.78125,0.6875 l 13.90625,0 c -0.0344,-0.046 -0.0598,-0.0781 -0.0937,-0.125 -0.50261,-0.6931 -1.0625,-1.48446 -1.0625,-2.78125 0,-3.01214 1.73936,-5.63795 4.21875,-7.375 2.47939,-1.73705 5.75303,-2.71875 9.3125,-2.71875 3.55947,0 6.83311,0.9817 9.3125,2.71875 2.47939,1.73705 4.21875,4.36286 4.21875,7.375 0,1.29679 -0.55989,2.08815 -1.0625,2.78125 -0.034,0.0469 -0.0593,0.079 -0.0937,0.125 l 5.5,0 7.4375,0 c 0.54435,0 0.875,-0.29368 0.875,-0.6875 l 0,-11.8125 c -0.19348,0.16998 -0.32323,0.33674 -0.53125,0.5 -0.76308,0.59889 -1.60321,1.28125 -3.03125,1.28125 -3.00332,0 -5.61259,-1.75607 -7.34375,-4.25 -1.73116,-2.49393 -2.71875,-5.78731 -2.71875,-9.375 0,-3.58768 0.98916,-6.87403 2.71875,-9.375 1.72959,-2.50097 4.33564,-4.28125 7.34375,-4.28125 1.42797,0 2.26829,0.68255 3.03125,1.28125 0.20799,0.16321 0.33779,0.33007 0.53125,0.5 l 0,-11.625 c 0,-0.39382 -0.43982,-0.8125 -0.875,-0.8125 l -14.90625,0 c -0.40923,0 -1.05081,-0.0111 -1.71875,-0.65625 -0.66794,-0.64516 -0.73086,-1.65928 -0.625,-2.125 0.21172,-0.93143 0.51458,-1.16 0.75,-1.5 0.23542,-0.34 0.47156,-0.63128 0.59375,-0.84375 0.0265,-0.0461 0.0184,-0.0605 0.0312,-0.0937 -0.0359,-1.40978 -0.80029,-2.7085 -2.4375,-3.8125 -1.67575,-1.12999 -4.18549,-1.90625 -7,-1.90625 z" />
        <path
           style="color:#000000;fill:none;stroke:#4e9a06;stroke-width:2.20158482;stroke-miterlimit:4;stroke-dasharray:none;marker:none;visibility:visible;display:inline;overflow:visible;enable-background:new"
           d="m 218.34441,330.36402 c -6.35066,0 -11.50513,3.39008 -11.50513,7.85061 0,1.22827 2.34001,3.10235 1.09365,3.10235 -4.29802,0 -15.88579,0 -15.88579,0 -1.55105,0 -2.79972,1.26074 -2.79972,2.82677 l 0,13.44977 c 0,1.54489 -2.53488,-1.55694 -3.9918,-1.55694 -4.41785,0 -7.03526,5.21811 -7.03526,11.63012 0,6.41202 2.61741,11.59141 7.03526,11.59141 1.45572,0 3.9918,-3.10036 3.9918,-1.55693 l 0,13.6149 c 0,1.56604 1.24867,2.7162 2.79972,2.7162 l 17.31846,0 c 2.09035,0 -2.52632,-3.025 -2.52632,-4.93566 0,-4.46053 5.15447,-8.07177 11.50513,-8.07177 6.35065,0 11.49419,3.61124 11.49419,8.07177 0,1.91066 -4.61667,4.93566 -2.52632,4.93566 l 8.9126,0 7.43336,0 c 1.55105,0 2.91053,-1.15016 2.91053,-2.7162 l 0,-15.24913 c 0,-2.44707 -3.48011,3.19116 -5.61183,3.19116 -4.41784,0 -8.00546,-5.20427 -8.00546,-11.61629 0,-6.41201 3.58762,-11.60524 8.00546,-11.60524 2.13057,0 5.61183,5.62553 5.61183,3.18012 l 0,-15.07295 c 0,-1.56603 -1.35948,-2.82677 -2.91053,-2.82677 0,0 -10.68088,0 -14.91328,0 -1.24637,0 1.09364,-1.87408 1.09364,-3.10235 0,-4.46053 -5.14354,-7.85061 -11.49419,-7.85061 z"
           id="rect2987-9"
           inkscape:connector-curvature="0"
           sodipodi:nodetypes="ssssssssssssssssscssssssssssss" />
        <path
           style="opacity:0.6;color:#000000;fill:url(#linearGradient4051);fill-opacity:1;stroke:none;stroke-width:1.39999998;marker:none;visibility:visible;display:inline;overflow:visible;enable-background:new"
           d="m 218,335.1875 c -3.4988,0.24718 -5.3388,1.31334 -5.3388,3.8125 5.91273,8.19028 -10.84732,8.42315 -17.91805,8.3431 l 0,19.20973 31.20471,0 c 0.93897,-6.88366 6.46985,-14.98089 12.69139,-15.30292 l 0.1108,-3.90681 c -13.10088,-0.91578 -18.71251,-0.0533 -13.9737,-8.3431 0,-2.66577 -2.2255,-3.8125 -6.05755,-3.8125 -0.2395,0 -0.48492,0 -0.71875,0 z"
           id="path3843-8"
           inkscape:connector-curvature="0"
           sodipodi:nodetypes="ccccccccssc" />
        <path
           style="opacity:0.6;color:#000000;fill:url(#linearGradient4053);fill-opacity:1;stroke:none;stroke-width:1.39999998;marker:none;visibility:visible;display:inline;overflow:visible;enable-background:new"
           d="m 194.73759,375.32871 0,13.2337 6.65237,0 c -0.0688,-8.60761 10.03491,-13.14539 17.52201,-13.16485 -21.50263,-0.0414 -24.17438,-0.0688 -24.17438,-0.0688 z"
           id="path3843-5"
           inkscape:connector-curvature="0"
           sodipodi:nodetypes="cccccc" />
      </g>
    </g>
  </g>
</svg>
